<svg width="40" height="40" viewBox="0 0 40 40" fill="none" xmlns="http://www.w3.org/2000/svg">
<g clip-path="url(#clip0_2177_7)">
<path d="M4 2C4 3.10457 3.10457 4 2 4C0.89543 4 0 3.10457 0 2C0 0.89543 0.89543 0 2 0C3.10457 0 4 0.89543 4 2Z" fill="url(#paint0_linear_2177_7)" fill-opacity="0.8"/>
<path d="M4 22C4 23.1046 3.10457 24 2 24C0.89543 24 0 23.1046 0 22C0 20.8954 0.89543 20 2 20C3.10457 20 4 20.8954 4 22Z" fill="url(#paint1_linear_2177_7)" fill-opacity="0.8"/>
<path d="M24 2C24 3.10457 23.1046 4 22 4C20.8954 4 20 3.10457 20 2C20 0.89543 20.8954 0 22 0C23.1046 0 24 0.89543 24 2Z" fill="url(#paint2_linear_2177_7)" fill-opacity="0.8"/>
<path d="M24 22C24 23.1046 23.1046 24 22 24C20.8954 24 20 23.1046 20 22C20 20.8954 20.8954 20 22 20C23.1046 20 24 20.8954 24 22Z" fill="url(#paint3_linear_2177_7)" fill-opacity="0.8"/>
</g>
<defs>
<linearGradient id="paint0_linear_2177_7" x1="192" y1="0" x2="192" y2="824" gradientUnits="userSpaceOnUse">
<stop stop-color="#D1E2E9"/>
<stop offset="1" stop-color="#D1E2E9" stop-opacity="0"/>
</linearGradient>
<linearGradient id="paint1_linear_2177_7" x1="192" y1="0" x2="192" y2="824" gradientUnits="userSpaceOnUse">
<stop stop-color="#D1E2E9"/>
<stop offset="1" stop-color="#D1E2E9" stop-opacity="0"/>
</linearGradient>
<linearGradient id="paint2_linear_2177_7" x1="192" y1="0" x2="192" y2="824" gradientUnits="userSpaceOnUse">
<stop stop-color="#D1E2E9"/>
<stop offset="1" stop-color="#D1E2E9" stop-opacity="0"/>
</linearGradient>
<linearGradient id="paint3_linear_2177_7" x1="192" y1="0" x2="192" y2="824" gradientUnits="userSpaceOnUse">
<stop stop-color="#D1E2E9"/>
<stop offset="1" stop-color="#D1E2E9" stop-opacity="0"/>
</linearGradient>
<clipPath id="clip0_2177_7">
<rect width="40" height="40" fill="white"/>
</clipPath>
</defs>
</svg>
