<svg width="40" height="40" viewBox="0 0 40 40" fill="none" xmlns="http://www.w3.org/2000/svg">
<path d="M2 20C3.10457 20 4 20.8954 4 22C4 23.1046 3.10457 24 2 24C0.895431 24 9.22509e-07 23.1046 8.74226e-07 22C8.25944e-07 20.8954 0.895431 20 2 20Z" fill="url(#paint0_linear_82_7)"/>
<path d="M22 20C23.1046 20 24 20.8954 24 22C24 23.1046 23.1046 24 22 24C20.8954 24 20 23.1046 20 22C20 20.8954 20.8954 20 22 20Z" fill="url(#paint1_linear_82_7)"/>
<path d="M2 8.74228e-07C3.10457 8.25946e-07 4 0.895431 4 2C4 3.10457 3.10457 4 2 4C0.89543 4 4.82823e-08 3.10457 0 2C-4.82823e-08 0.895431 0.89543 9.2251e-07 2 8.74228e-07Z" fill="url(#paint2_linear_82_7)"/>
<path d="M22 0C23.1046 -4.82823e-08 24 0.89543 24 2C24 3.10457 23.1046 4 22 4C20.8954 4 20 3.10457 20 2C20 0.89543 20.8954 4.82823e-08 22 0Z" fill="url(#paint3_linear_82_7)"/>
<defs>
<linearGradient id="paint0_linear_82_7" x1="1252.05" y1="-0.0522188" x2="1252.05" y2="383.948" gradientUnits="userSpaceOnUse">
<stop stop-color="#FFEDE6"/>
<stop offset="1" stop-color="#FFEDE6" stop-opacity="0.3"/>
</linearGradient>
<linearGradient id="paint1_linear_82_7" x1="1252.05" y1="-0.0522188" x2="1252.05" y2="383.948" gradientUnits="userSpaceOnUse">
<stop stop-color="#FFEDE6"/>
<stop offset="1" stop-color="#FFEDE6" stop-opacity="0.3"/>
</linearGradient>
<linearGradient id="paint2_linear_82_7" x1="1252.05" y1="-0.0522188" x2="1252.05" y2="383.948" gradientUnits="userSpaceOnUse">
<stop stop-color="#FFEDE6"/>
<stop offset="1" stop-color="#FFEDE6" stop-opacity="0.3"/>
</linearGradient>
<linearGradient id="paint3_linear_82_7" x1="1252.05" y1="-0.0522188" x2="1252.05" y2="383.948" gradientUnits="userSpaceOnUse">
<stop stop-color="#FFEDE6"/>
<stop offset="1" stop-color="#FFEDE6" stop-opacity="0.3"/>
</linearGradient>
</defs>
</svg>
