<svg width="15" height="14" viewBox="0 0 15 14" fill="none" xmlns="http://www.w3.org/2000/svg">
<path d="M0.5 1.5C0.520833 1.08333 0.666667 0.729167 0.9375 0.4375C1.22917 0.166667 1.58333 0.0208333 2 0H5C5.41667 0.0208333 5.77083 0.166667 6.0625 0.4375C6.33333 0.729167 6.47917 1.08333 6.5 1.5V6.5C6.47917 6.91667 6.33333 7.27083 6.0625 7.5625C5.77083 7.83333 5.41667 7.97917 5 8H2C1.58333 7.97917 1.22917 7.83333 0.9375 7.5625C0.666667 7.27083 0.520833 6.91667 0.5 6.5V1.5ZM2 6.5H5V1.5H2V6.5ZM8.5 7.5C8.52083 7.08333 8.66667 6.72917 8.9375 6.4375C9.22917 6.16667 9.58333 6.02083 10 6H13C13.4167 6.02083 13.7708 6.16667 14.0625 6.4375C14.3333 6.72917 14.4792 7.08333 14.5 7.5V12.5C14.4792 12.9167 14.3333 13.2708 14.0625 13.5625C13.7708 13.8333 13.4167 13.9792 13 14H10C9.58333 13.9792 9.22917 13.8333 8.9375 13.5625C8.66667 13.2708 8.52083 12.9167 8.5 12.5V7.5ZM10 12.5H13V7.5H10V12.5ZM5 9C5.41667 9.02083 5.77083 9.16667 6.0625 9.4375C6.33333 9.72917 6.47917 10.0833 6.5 10.5V12.5C6.47917 12.9167 6.33333 13.2708 6.0625 13.5625C5.77083 13.8333 5.41667 13.9792 5 14H2C1.58333 13.9792 1.22917 13.8333 0.9375 13.5625C0.666667 13.2708 0.520833 12.9167 0.5 12.5V10.5C0.520833 10.0833 0.666667 9.72917 0.9375 9.4375C1.22917 9.16667 1.58333 9.02083 2 9H5ZM5 10.5H2V12.5H5V10.5ZM8.5 1.5C8.52083 1.08333 8.66667 0.729167 8.9375 0.4375C9.22917 0.166667 9.58333 0.0208333 10 0H13C13.4167 0.0208333 13.7708 0.166667 14.0625 0.4375C14.3333 0.729167 14.4792 1.08333 14.5 1.5V3.5C14.4792 3.91667 14.3333 4.27083 14.0625 4.5625C13.7708 4.83333 13.4167 4.97917 13 5H10C9.58333 4.97917 9.22917 4.83333 8.9375 4.5625C8.66667 4.27083 8.52083 3.91667 8.5 3.5V1.5ZM10 3.5H13V1.5H10V3.5Z" fill="white"/>
</svg>
